<?xml version="1.0" encoding="iso-8859-1"?>
<!-- Generator: Adobe Illustrator 19.0.0, SVG Export Plug-In . SVG Version: 6.00 Build 0)  -->
<svg version="1.1" id="Capa_1" xmlns="http://www.w3.org/2000/svg" xmlns:xlink="http://www.w3.org/1999/xlink" x="0px" y="0px"
	 viewBox="0 0 470 470" style="enable-background:new 0 0 470 470;" xml:space="preserve">
<path d="M452.728,455h-2.442V194.266c0-80.431-59.858-147.134-137.364-157.929c1.781-3.428,2.794-7.316,2.794-11.438
	C315.715,11.169,304.546,0,290.816,0c-6.744,0-13.059,2.652-17.779,7.468c-2.9,2.958-2.853,7.707,0.105,10.606
	c2.957,2.899,7.707,2.854,10.605-0.105c1.877-1.915,4.388-2.969,7.068-2.969c5.458,0,9.898,4.44,9.898,9.899
	c0,5.458-4.44,9.898-9.898,9.898c-85.417,0-155.357,67.506-159.287,151.969H17.272c-4.143,0-7.5,3.358-7.5,7.5v134.117
	c0,4.142,3.357,7.5,7.5,7.5h60.778c0.003,0,0.006,0,0.01,0s0.006,0,0.01,0h53.277V455h-2.442c-4.143,0-7.5,3.358-7.5,7.5
	s3.357,7.5,7.5,7.5h323.822c4.143,0,7.5-3.358,7.5-7.5S456.87,455,452.728,455z M374.498,320.883H207.135V201.766h167.363V320.883z
	 M290.816,49.969c1.58,1.208,8.592,8.325,14.896,42.244c4.817,25.921,7.612,59.254,7.959,94.553h-45.71
	c0.348-35.299,3.142-68.632,7.959-94.553C282.224,58.293,289.237,51.177,290.816,49.969z M328.673,186.766
	c-0.367-38.263-3.533-74.039-9.011-101.429c-2.605-13.024-5.534-23.416-8.859-31.311c14.126,6.078,27.219,18.577,38.057,36.64
	c15.476,25.792,24.44,59.678,25.524,96.099H328.673z M270.83,54.027c-3.325,7.895-6.254,18.287-8.859,31.311
	c-5.478,27.39-8.645,63.166-9.011,101.429h-45.711c1.084-36.421,10.048-70.308,25.524-96.099
	C243.61,72.604,256.704,60.105,270.83,54.027z M207.135,335.883h45.788V455h-45.788V335.883z M267.923,335.883h45.787V455h-45.787
	V335.883z M328.71,335.883h45.788V455H328.71V335.883z M389.498,201.766h45.787V455h-45.787V201.766z M435.092,186.766H389.39
	c-1.104-39.128-10.828-75.751-27.667-103.817c-5.224-8.707-10.963-16.315-17.115-22.758
	C395.503,80.684,432.141,129.345,435.092,186.766z M24.772,201.766h45.788v119.117H24.772V201.766z M85.561,320.883V201.766h45.787
	v119.117H85.561z M146.348,335.883h23.287c4.143,0,7.5-3.358,7.5-7.5s-3.357-7.5-7.5-7.5h-23.287V201.766h23.288
	c4.143,0,7.5-3.358,7.5-7.5s-3.357-7.5-7.5-7.5h-23.095c2.951-57.421,39.589-106.083,90.484-126.575
	c-6.152,6.443-11.891,14.052-17.115,22.758c-17.911,29.852-27.775,69.385-27.775,111.317V455h-45.787V335.883z"/>
<g>
</g>
<g>
</g>
<g>
</g>
<g>
</g>
<g>
</g>
<g>
</g>
<g>
</g>
<g>
</g>
<g>
</g>
<g>
</g>
<g>
</g>
<g>
</g>
<g>
</g>
<g>
</g>
<g>
</g>
</svg>
